<svg width="141" height="91" viewBox="0 0 141 91" fill="none" xmlns="http://www.w3.org/2000/svg">
<path d="M135.832 0.386042L138.006 0.346042C140.18 0.306043 140.877 1.38604 140.918 3.58604C141.041 10.026 137.883 23.906 136.693 26.706C135.955 28.306 135.176 28.746 133.822 28.666C130.254 28.386 126.07 28.386 122.091 28.666C120.369 28.786 119.015 28.106 119.015 26.346C119.015 25.066 120.041 23.666 121.64 21.746C122.461 20.786 122.83 19.466 122.379 18.146C121.722 16.146 118.195 8.30604 117.088 5.90604C115.447 2.18604 116.144 0.546042 119.384 0.546042L126.89 0.506042C128.408 0.506042 129.474 1.22604 129.967 2.82604C130.787 5.66604 131.566 6.58604 132.92 6.58604C133.863 6.58604 134.601 6.10604 134.601 5.06604C134.601 3.70604 133.453 3.18604 133.453 2.06604C133.453 0.906042 134.273 0.386042 135.832 0.386042Z" fill="black"/>
<path d="M103.522 28.706L100.076 28.666C97.6154 28.626 96.8361 27.226 96.9181 25.386C97.2873 19.226 97.2463 10.266 97.5334 3.30596C97.5744 1.38596 98.6408 0.105957 101.471 0.105957C110.864 0.105957 116.606 3.62596 116.606 12.666C116.606 24.106 112.955 28.866 103.522 28.706ZM107.737 13.2659C105.892 13.2659 104.825 15.3059 104.825 18.5859C104.825 20.2659 105.522 21.1859 106.671 21.1859C108.681 21.1859 109.911 19.3859 109.911 16.3859C109.911 14.4259 109.091 13.2659 107.737 13.2659Z" fill="black"/>
<path d="M80.0252 26.9059C80.2713 27.7059 79.7381 28.4259 78.8767 28.4259L74.6111 28.4659C72.6423 28.4659 71.4938 26.9859 72.4372 24.1459C73.7907 19.4659 76.0466 8.7859 76.8259 4.5059C77.3591 1.5059 78.7127 0.585898 81.4607 0.545898C83.6756 0.545898 87.1209 0.545898 89.0487 0.585898C92.6991 0.705899 94.0116 1.6659 94.3398 5.1459C94.7499 9.9459 95.6113 23.4259 95.2831 26.4659C95.1191 27.9859 94.2577 28.4659 93.3554 28.5059C91.3046 28.5459 86.7928 28.3859 84.66 28.3859C83.5936 28.3859 83.1424 27.5459 83.5525 26.6259C83.8807 25.9859 84.0858 25.3059 84.0858 24.4259C84.0858 23.3459 83.4705 22.5859 82.076 22.5859C80.2713 22.5859 79.7381 24.0659 79.697 25.1059C79.697 25.7859 79.8201 26.3459 80.0252 26.9059ZM83.5525 17.9059C85.5213 17.9059 86.8748 16.2659 86.8748 14.2659C86.8748 12.9059 86.1366 12.0259 84.783 12.0259C83.1424 12.0259 81.9119 13.6259 81.9119 15.7459C81.9119 17.0659 82.4861 17.9059 83.5525 17.9059Z" fill="black"/>
<path d="M54.1773 0.905985C58.8941 1.10599 64.9235 0.585985 68.4919 0.625984C69.9274 0.625984 70.6247 1.30599 70.7888 2.22599C71.0349 3.62599 71.1579 5.34599 71.1169 6.30598C71.1169 7.54599 69.7634 8.06599 68.6969 6.90598C67.7536 5.90599 66.6461 5.14599 65.2926 5.14599C63.8571 5.14599 63.2008 5.82599 63.2008 7.02599C63.2008 9.50599 65.4157 10.706 68.6149 10.706C70.0915 10.706 70.9528 11.426 71.0349 13.306C71.0759 14.626 71.1989 16.146 71.322 17.226C71.445 18.266 70.5427 18.866 69.4763 18.346C68.779 17.986 67.5075 17.346 65.7028 17.346C64.5953 17.346 63.816 17.906 63.816 19.226C63.816 21.386 66.0309 22.946 69.1891 22.946C70.2966 22.946 70.9938 23.506 71.0349 24.586L71.1169 26.906C71.1579 27.986 70.5427 28.586 69.4352 28.506L66.8512 28.386C63.693 28.226 60.4937 28.226 57.7047 28.226C56.8023 28.226 54.8746 28.346 53.357 28.346C51.7984 28.346 50.855 28.026 50.855 25.586C50.855 23.386 51.9624 3.86599 51.9624 3.02598C51.9624 1.46599 52.5777 0.865986 54.1773 0.905985Z" fill="black"/>
<path d="M29.2649 18.586L29.3059 2.346C29.3059 0.946002 30.0442 0.146002 31.6028 0.0660011C36.3196 -0.0939969 42.5541 0.0260016 47.1889 0.546002C48.8705 0.746002 49.5678 1.506 49.5268 2.986L48.9936 18.946C48.9526 20.546 48.4604 21.306 47.0658 21.306C46.0404 21.306 45.4252 20.666 45.3842 18.866C45.3022 16.986 44.851 16.146 44.0717 16.146C43.2924 16.146 42.8822 16.906 42.8822 18.866C42.8822 21.866 43.7435 23.306 44.3178 24.146C44.892 25.026 45.7533 25.626 45.7533 27.066C45.7533 27.946 45.015 28.586 43.8256 28.586L35.0071 28.706C33.4485 28.706 32.7923 28.066 32.7923 27.346C32.7513 26.146 33.3255 25.546 33.8587 24.666C34.679 23.226 35.4993 21.946 35.4993 18.866C35.4993 16.706 35.0482 15.626 33.9817 15.626C33.1204 15.626 32.7513 16.426 32.7513 18.226C32.7513 20.186 32.2591 20.866 31.1516 20.906C29.7981 20.946 29.2649 20.106 29.2649 18.586Z" fill="black"/>
<path d="M27.5752 5.98594C27.6162 7.06594 27.6162 8.46594 27.6162 9.86594C27.6162 11.8259 27.206 12.5059 25.9755 12.5059C23.8427 12.5059 24.0068 8.18594 21.2997 8.18594C20.2743 8.18594 19.7821 9.06594 19.7821 9.98594C19.7821 12.9059 27.7392 14.8659 27.7392 20.9859C27.7392 25.9859 25.8525 28.2659 21.4638 28.3459C17.4852 28.3859 14.6961 28.4659 11.5379 28.5059C8.62576 28.5459 6.86207 27.3459 6.4109 24.9059C6.32886 24.1859 6.04175 22.4259 6.04175 20.5859C6.04175 19.5859 6.32886 18.7459 7.23122 18.7459C7.84646 18.7459 8.29763 18.9059 8.70779 19.7459C9.36405 21.0659 10.3074 22.5459 12.1531 22.5459C13.4657 22.5459 14.0399 21.6659 14.0399 20.5859C14.0399 16.5859 5.59058 15.2659 5.59058 8.66594C5.59058 3.06594 7.84646 0.585938 13.0555 0.585938C15.0653 0.585938 19.6591 0.625937 21.2587 0.705938C25.4423 0.905938 27.4111 2.66594 27.5752 5.98594Z" fill="black"/>
<path d="M125.203 59.7059L120.403 59.6659C117.843 59.6259 117.043 58.2259 117.163 56.3859C117.603 50.2259 117.563 41.2659 117.883 34.3059C117.963 32.3859 119.003 31.0659 122.203 31.0659C133.723 31.0659 140.363 34.6259 140.363 43.6659C140.363 55.1059 136.083 59.8659 125.203 59.7059ZM126.643 40.5859C124.603 40.5859 123.403 42.6259 123.403 45.8259C123.403 47.5859 124.163 48.5059 125.483 48.5059C127.763 48.5059 129.123 46.7059 129.123 43.7059C129.123 41.7459 128.203 40.5859 126.643 40.5859Z" fill="black"/>
<path d="M91.4337 55.906C91.3137 52.346 90.9937 39.426 90.9937 34.586C90.9937 32.626 91.8737 31.666 93.7937 31.666C95.2737 31.666 99.0737 31.546 100.954 31.466C102.754 31.426 103.474 32.106 103.754 33.346C104.634 37.786 105.714 39.266 107.594 39.266C108.554 39.266 109.154 38.546 109.154 37.706C109.154 36.226 108.554 35.506 107.034 33.906C105.994 32.786 106.194 31.346 107.554 31.266C108.914 31.226 110.914 31.146 112.674 31.146C114.554 31.186 115.514 32.426 115.434 34.386C115.274 40.786 114.994 49.186 115.394 56.346C115.514 58.306 114.594 59.266 113.194 59.226C112.194 59.226 109.594 59.386 107.994 59.386C106.514 59.386 105.714 58.746 105.154 56.786C103.994 52.186 102.394 51.066 101.234 51.066C100.154 51.066 99.5937 51.666 99.5937 52.626C99.5937 54.466 100.554 55.626 101.994 57.066C103.194 58.226 102.274 59.506 100.754 59.506C99.5137 59.506 96.3137 59.626 94.9937 59.666C92.5137 59.706 91.5537 58.586 91.4337 55.906Z" fill="black"/>
<path d="M82.6621 57.9059C82.4221 58.7059 82.9421 59.4259 83.7821 59.4259L87.9421 59.4659C89.8621 59.4659 90.9821 57.9859 90.0621 55.1459C88.7421 50.4659 87.4792 40.037 86.7192 35.757C86.1992 32.757 84.8792 31.837 82.1992 31.797C80.0392 31.797 76.6792 31.797 74.7992 31.837C71.2392 31.957 69.9592 32.917 69.6392 36.397C69.2392 41.197 67.4621 54.4259 67.7821 57.4659C67.9421 58.9859 68.7821 59.4659 69.6621 59.5059C71.6621 59.5459 76.0621 59.3859 78.1421 59.3859C79.1821 59.3859 79.6221 58.5459 79.2221 57.6259C78.9021 56.9859 78.7021 56.3059 78.7021 55.4259C78.7021 54.3459 79.3021 53.5859 80.6621 53.5859C82.4221 53.5859 82.9421 55.0659 82.9821 56.1059C82.9821 56.7859 82.8621 57.3459 82.6621 57.9059ZM77.6221 45.746C75.7021 45.746 74.3821 44.106 74.3821 42.106C74.3821 40.746 75.1021 39.866 76.4221 39.866C78.0221 39.866 79.2221 41.466 79.2221 43.586C79.2221 44.906 78.6621 45.746 77.6221 45.746Z" fill="black"/>
<path d="M43.5826 33.7059C43.7026 32.1059 44.3826 31.3459 46.1026 31.4259L50.1026 31.5859C51.3026 31.6259 51.4626 32.7059 51.1426 33.4659C50.7826 34.2659 50.5826 35.0659 50.5826 36.1459C50.5826 37.6659 51.4226 38.3859 52.9426 38.3859C54.1026 38.3859 54.9426 37.7059 54.9426 36.4659C54.9426 35.7459 54.5426 34.7459 54.2626 33.8259C53.8626 32.5859 54.4626 31.7059 55.9826 31.7059L63.9426 31.7859C65.9026 31.7859 66.9026 33.1459 66.7826 35.1059C66.3826 41.0259 66.4226 51.6659 66.7026 56.3059C66.8626 58.6659 66.0226 59.3859 64.0626 59.3859C62.3026 59.3859 58.0226 59.3059 56.0626 59.3459C54.5826 59.3459 54.0626 58.5459 54.2626 57.5059C54.4226 56.8259 54.5026 56.1059 54.5026 55.4659C54.5026 54.2659 53.9426 53.4659 52.7426 53.4659C51.2226 53.4659 50.4226 54.5059 50.4226 56.1459C50.4226 56.7859 50.6626 57.5059 50.9026 58.2259C51.1026 58.8259 50.8226 59.4659 49.9426 59.4659C48.2626 59.4659 45.9826 59.7459 44.6626 59.7459C42.9426 59.7459 42.3026 58.9459 42.3426 56.8259C42.5026 49.6659 42.9426 41.4659 43.5826 33.7059Z" fill="black"/>
<path d="M118.138 85.1068C118.097 84.0268 118.097 82.6268 118.097 81.2268C118.097 79.2668 118.511 78.5868 119.754 78.5868C121.907 78.5868 121.742 82.9068 124.475 82.9068C125.511 82.9068 126.008 82.0268 126.008 81.1068C126.008 78.1868 117.973 76.2268 117.973 70.1068C117.973 65.1068 119.878 62.8268 124.309 62.7468C128.327 62.7068 131.143 62.6268 134.332 62.5868C137.273 62.5468 139.054 63.7468 139.509 66.1868C139.592 66.9068 139.882 68.6668 139.882 70.5068C139.882 71.5068 139.592 72.3468 138.681 72.3468C138.06 72.3468 137.604 72.1868 137.19 71.3468C136.527 70.0268 135.575 68.5468 133.711 68.5468C132.386 68.5468 131.806 69.4268 131.806 70.5068C131.806 74.5068 140.338 75.8268 140.338 82.4268C140.338 88.0268 138.06 90.5068 132.8 90.5068C130.77 90.5068 126.132 90.4668 124.517 90.3868C120.292 90.1868 118.304 88.4268 118.138 85.1068Z" fill="black"/>
<path d="M116.286 68.3859C116.369 69.2659 116.41 70.4659 116.41 71.8659C116.41 73.8259 115.872 74.5859 114.257 74.5859C111.523 74.5859 111.275 69.6259 107.713 69.6259C106.305 69.6259 105.725 70.5459 105.725 71.5859C105.725 74.8659 116.535 76.8659 116.535 82.9859C116.535 88.1459 114.091 90.2659 108.003 90.3459C102.577 90.3859 98.8084 90.4659 93.9626 90.5059C90.4422 90.5459 88.1229 89.3859 87.5431 86.9059C87.4188 86.1859 87.0046 84.4259 87.0046 82.5859C87.0046 81.5859 87.4602 80.7059 88.537 80.7059C89.2411 80.7059 89.8624 80.8659 90.4008 81.7459C91.312 83.1859 92.803 84.9059 95.3294 84.9059C97.1103 84.9059 97.8972 83.8259 97.8972 82.7859C97.8972 78.5859 86.4248 77.2659 86.4248 70.6659C86.4248 64.9059 89.2411 62.5859 96.2819 62.5859C99.0154 62.5859 105.559 62.6259 107.754 62.7059C113.428 62.9059 115.955 64.8659 116.286 68.3859Z" fill="black"/>
<path d="M67.6992 90.231C72.4621 90.031 78.5504 90.551 82.1536 90.511C83.6032 90.511 84.3073 89.831 84.4729 88.911C84.7214 87.511 84.8457 85.791 84.8043 84.831C84.8043 83.591 83.4375 83.071 82.3607 84.231C81.4081 85.231 80.2899 85.991 78.9231 85.991C77.4735 85.991 76.8109 85.311 76.8109 84.111C76.8109 81.631 79.0474 80.431 82.2779 80.431C83.7688 80.431 84.6386 79.711 84.7214 77.831C84.7628 76.511 84.8871 74.991 85.0113 73.911C85.1356 72.871 84.2244 72.271 83.1476 72.791C82.4435 73.151 81.1596 73.791 79.3373 73.791C78.219 73.791 77.4321 73.231 77.4321 71.911C77.4321 69.751 79.6686 68.191 82.8577 68.191C83.9759 68.191 84.68 67.631 84.7214 66.551L84.8043 64.231C84.8457 63.151 84.2244 62.551 83.1062 62.631L80.4969 62.751C77.3079 62.911 74.0774 62.911 71.2611 62.911C70.3499 62.911 68.4033 62.791 66.8709 62.791C65.2971 62.791 64.3445 63.111 64.3445 65.551C64.3445 67.751 65.4627 87.271 65.4627 88.111C65.4627 89.671 66.084 90.271 67.6992 90.231Z" fill="black"/>
<path d="M42.5999 90.5858L34.4409 90.6658C32.1215 90.7058 31.2104 89.8258 31.5417 87.0658C32.0801 81.1858 32.9913 71.1858 33.2398 66.7458C33.4883 62.5858 34.9793 61.7458 40.0321 61.7458C45.7476 61.7458 52.3328 61.8258 55.0663 62.0258C59.5807 62.3458 62.4799 64.6658 62.4799 70.1058C62.4799 76.4658 60.1191 78.4658 53.1197 78.4658C52.4157 78.4658 52.4571 79.2658 52.8298 79.3858C55.8532 80.3058 56.5573 83.2659 58.1726 83.2659C59.1665 83.2659 59.3736 82.7459 59.3736 82.1059C59.3736 81.6659 59.2908 81.3458 59.1666 81.0658C58.9181 80.4258 59.1251 79.3858 60.3676 79.3858C61.3202 79.3858 61.9829 80.1458 62.397 81.1458C62.7698 82.0658 63.8052 84.8658 63.8052 87.4658V88.0658C63.8052 89.7858 63.0183 90.5058 60.8646 90.5058L50.8832 90.5858C47.28 90.6258 47.0729 84.7458 43.8838 84.7458C42.7242 84.7458 42.2272 85.3858 42.2272 86.3458C42.2272 87.2659 42.9313 87.9458 43.5939 88.3858C44.4223 88.9458 44.2566 90.5858 42.5999 90.5858ZM46.4931 76.0658C48.9367 76.0658 50.5105 74.1858 50.5105 71.4658C50.5105 69.9858 49.268 68.9858 47.7356 68.9858C45.2092 68.9858 43.7596 70.8658 43.7596 73.7058C43.7596 75.1058 44.8778 76.0658 46.4931 76.0658Z" fill="black"/>
<path d="M18.1206 90.7059H7.89073C6.3169 90.7059 5.32291 89.6659 5.65424 87.8259C6.8139 80.4659 7.0624 72.7459 6.85532 65.1859C6.8139 63.2659 7.84932 62.1459 10.4586 62.4259C13.2335 62.7059 17.7893 62.7459 20.8127 62.4659C28.4333 61.8259 31.0012 66.4259 31.0012 74.9059C31.0012 82.1459 28.4748 86.3859 22.9249 86.5059C20.2743 86.5459 19.3631 84.2259 18.1206 84.2259C17.5822 84.2259 17.2923 84.5859 17.2923 85.1059C17.2923 85.9459 18.0378 87.2259 19.0732 88.2659C19.943 89.1859 19.653 90.7059 18.1206 90.7059ZM19.2389 80.1459C21.3097 80.1459 22.8007 78.0659 22.8007 75.7059C22.8007 74.3059 22.0138 73.4259 20.5228 73.4259C18.4105 73.4259 16.8367 75.4659 16.8367 77.8259C16.8367 79.1859 17.665 80.1459 19.2389 80.1459Z" fill="black"/>
<path d="M22.2508 32.2496C22.1202 32.2447 22.0048 32.333 21.9764 32.4592C21.9473 32.5866 22.014 32.7156 22.1346 32.7668C22.1555 32.7758 24.2914 33.693 25.1575 34.6976C25.6236 35.2397 25.7818 35.6378 25.9354 36.0224C26.0729 36.3687 26.2037 36.6972 26.5278 37.0576C26.8558 37.4218 27.2928 37.6849 27.7155 37.9382C28.167 38.208 28.634 38.4883 28.9871 38.8993C29.6758 39.6987 30.4744 41.8482 30.058 42.5694L30.0534 42.5774C29.8788 42.8692 29.4224 43.1179 28.8342 43.2415C28.0971 43.3972 27.345 43.3187 26.9625 43.0488C26.7103 42.8695 25.7792 41.9853 24.5999 40.8643C21.8772 38.2756 17.7634 34.3638 15.8542 33.2615C13.1064 31.6751 10.9405 32.6882 10.8498 32.7309C10.7499 32.7791 10.6902 32.8826 10.6984 32.9932C10.7067 33.1038 10.7814 33.1975 10.8865 33.2306C10.9005 33.2356 12.3438 33.6947 12.9196 34.2725C13.1817 34.5358 13.3703 34.844 13.5685 35.1701C13.8242 35.5877 14.0869 36.0199 14.5281 36.3927C14.9579 36.7559 15.4836 36.9689 15.946 37.1562C16.3091 37.3029 16.6518 37.4425 16.8413 37.6163C17.0093 37.7716 17.2748 38.2147 17.5554 38.685C18.0031 39.4342 18.56 40.3661 19.1758 40.9226C19.8062 41.4935 20.4771 41.7659 21.0684 42.0061C21.4308 42.154 21.7724 42.2929 22.0379 42.4784C22.3623 42.7055 22.807 43.2368 23.2923 43.974C23.4167 44.1623 23.4049 44.4086 23.2652 44.5841C23.132 44.751 22.9149 44.8189 22.711 44.7579C22.0452 44.559 20.4167 44.0513 19.666 43.6118C19.2498 43.3684 18.8014 42.9976 18.3257 42.6049C17.6302 42.03 16.9101 41.4364 16.1601 41.123C15.5157 40.8552 14.894 40.7953 14.2923 40.7378C13.7326 40.6845 13.2037 40.6337 12.7466 40.4081C12.201 40.1392 11.871 39.7677 11.5801 39.4402C11.3632 39.197 11.1598 38.9676 10.901 38.8182C10.6354 38.6648 10.336 38.6069 10.0453 38.5526C9.66112 38.4795 9.29932 38.4102 8.97223 38.1401C8.39465 37.6609 8.0476 36.5435 8.04352 36.5319C8.01024 36.4222 7.90961 36.3442 7.79497 36.3409C7.67917 36.3369 7.57442 36.4068 7.53408 36.5138C7.50574 36.5895 6.8344 38.3765 7.47195 39.7C7.88034 40.5492 8.72376 41.0699 9.46844 41.5305C9.866 41.7769 10.2419 42.0078 10.465 42.2455C10.6452 42.4354 10.8496 42.6976 11.0657 42.9742C11.6515 43.7234 12.3809 44.6567 13.3153 45.0995C13.9424 45.3972 14.6825 45.5684 15.466 45.7493C16.2588 45.9326 17.0794 46.121 17.8737 46.4585C18.791 46.8486 19.6348 47.4323 20.1807 47.8548C20.4371 48.0535 20.4991 48.4083 20.321 48.6796C20.1425 48.9569 19.779 49.0446 19.4938 48.8799C18.688 48.4162 17.6033 47.8406 17.0172 47.7322C16.5588 47.647 16.037 47.7352 15.5327 47.8198C15.0007 47.9098 14.4489 48.0023 14.0231 47.8791C13.574 47.7487 13.1167 47.3481 12.6741 46.9592C12.2886 46.6201 11.9229 46.3 11.54 46.1265C11.2347 45.9886 10.8687 45.9107 10.4798 45.8272C9.79298 45.6807 9.0145 45.515 8.27395 44.9754C7.11435 44.1311 5.85476 41.9807 5.84168 41.9578C5.77972 41.85 5.65063 41.8 5.53071 41.835C5.41194 41.8707 5.33138 41.9837 5.33872 42.1091C5.34677 42.2625 5.5623 45.8789 6.67253 47.4353C7.5019 48.5966 8.7417 48.9274 9.6477 49.1699C9.99322 49.262 10.2919 49.3424 10.5039 49.448C10.8528 49.6218 11.2456 49.9483 11.661 50.2939C12.1841 50.7294 12.7259 51.1802 13.2633 51.3862C13.8356 51.6062 14.4013 51.5003 14.9483 51.3975C15.3696 51.3186 15.7679 51.2449 16.1731 51.3056C16.6725 51.3808 17.5747 51.7467 18.65 52.3093C18.8173 52.3967 18.9364 52.5544 18.9764 52.74C19.0424 53.0481 18.8682 53.3631 18.5712 53.4738C17.9991 53.6864 17.189 53.9287 16.5852 53.8776C16.0144 53.8303 15.109 53.3903 14.31 53.0026C13.5791 52.6481 12.9477 52.3419 12.5065 52.2773C12.1107 52.219 11.7279 52.2633 11.3216 52.3109C10.7698 52.3742 10.1982 52.4398 9.56421 52.2364C8.48494 51.8878 6.7964 50.1215 6.7791 50.1039C6.6963 50.0162 6.56609 49.9947 6.4586 50.0508C6.35177 50.1056 6.29457 50.226 6.31842 50.344C6.34422 50.4693 6.96185 53.4238 8.55585 54.4852C9.64812 55.2124 10.7346 55.2616 11.6076 55.3009C12.0022 55.3186 12.3428 55.3343 12.6115 55.4081C13.0335 55.5245 13.4697 55.7917 13.9754 56.1005C14.5441 56.4488 15.1905 56.8434 15.9886 57.1264C16.9406 57.4644 18.0435 57.3205 19.0168 57.1939C19.589 57.1194 20.1299 57.0483 20.4584 57.1168C20.7129 57.1702 21.1187 57.3677 21.5892 57.5994C22.7071 58.1467 24.3961 58.9746 26.36 58.9813C28.2226 58.9877 29.8143 58.3532 30.9767 57.891C31.532 57.6702 32.0117 57.4794 32.3171 57.4472C33.1812 57.3557 33.9368 58.0817 33.9435 58.0887C34.003 58.1476 34.0871 58.1746 34.1687 58.1635C34.2514 58.153 34.3246 58.1032 34.3665 58.0307L38.6464 50.6177C38.6909 50.5406 38.6947 50.4463 38.6556 50.3654C38.6175 50.2851 38.5412 50.2288 38.4521 50.2157C37.8088 50.1188 36.6881 49.8153 36.4159 49.4128C36.2312 49.1405 36.2579 48.7357 36.2883 48.2686C36.3174 47.8223 36.3508 47.3156 36.1971 46.8143C36.0331 46.2748 35.7006 45.8651 35.4076 45.5042C35.1317 45.164 34.8934 44.87 34.8336 44.538C34.7917 44.3052 34.8288 43.9647 34.8727 43.5698C34.963 42.7493 35.0876 41.6251 34.5953 40.4192C34.1035 39.2151 33.1021 38.5112 32.2964 37.9463C31.9036 37.6705 31.565 37.4335 31.3859 37.2044C31.2185 36.9897 31.091 36.6553 30.9447 36.2687C30.6148 35.4004 30.2048 34.3202 28.9939 33.5567C27.2699 32.4708 22.4557 32.2591 22.2508 32.2496ZM31.4373 55.1987C31.4319 55.2294 31.4207 55.2566 31.4061 55.282C31.3503 55.3786 31.2369 55.4342 31.121 55.4118C30.1794 55.2285 29.024 55.3651 28.0034 55.4859C27.0685 55.5964 26.1835 55.7004 25.5618 55.55C24.9975 55.4144 24.3378 55.0534 23.6396 54.6718C22.7696 54.1971 21.7821 53.6576 20.9082 53.535C20.7607 53.5142 20.6582 53.3783 20.6778 53.2302C20.6985 53.0827 20.8344 52.9801 20.9826 52.9997C21.9544 53.136 22.9863 53.6995 23.8972 54.1963C24.5644 54.5601 25.1923 54.9042 25.688 55.0232C26.217 55.1508 27.053 55.0522 27.9399 54.9477C28.9982 54.8226 30.198 54.681 31.2237 54.8806C31.3689 54.9108 31.4651 55.0522 31.4373 55.1987ZM32.2323 53.5322C32.2291 53.5748 32.2166 53.6151 32.1967 53.6496C32.1469 53.7359 32.0519 53.7915 31.9459 53.7839C31.835 53.7767 29.2032 53.5991 26.8099 52.6789C24.4294 51.7631 22.3536 50.126 22.2665 50.0558C22.1502 49.9626 22.13 49.793 22.2233 49.6766C22.3165 49.5602 22.4861 49.54 22.6025 49.6333C22.6235 49.65 24.7029 51.2892 27.0042 52.1746C29.3218 53.0664 31.9545 53.243 31.9811 53.2445C32.1298 53.2552 32.2419 53.3828 32.2323 53.5322ZM25.1561 45.7815C25.8578 46.2955 26.3985 47.0217 26.9222 47.7244C27.4794 48.4724 28.0059 49.1782 28.6696 49.5614C29.2378 49.8894 29.8471 50.0771 30.4926 50.2765C31.3333 50.5364 32.2873 50.8311 33.3001 51.4941C33.4203 51.5727 33.4571 51.732 33.3861 51.8551L33.3781 51.8689C33.2968 51.9937 33.1293 52.0289 33.0051 51.9464C32.0559 51.3248 31.1814 51.0545 30.3337 50.7936C29.6584 50.5847 29.0204 50.3881 28.4004 50.0302C27.6402 49.5912 27.0565 48.8064 26.4916 48.0478C25.9921 47.3776 25.4756 46.6837 24.8395 46.2183C24.7187 46.1301 24.6949 45.9615 24.7813 45.8411C24.8671 45.719 25.0359 45.6922 25.1561 45.7815ZM31.5932 43.8359C31.6379 43.8755 32.6899 44.8264 32.8063 45.7033C32.8639 46.1399 32.757 46.5828 32.654 47.011C32.555 47.4215 32.4608 47.8104 32.5159 48.1612C32.604 48.7258 33.4308 49.5037 33.7412 49.755C33.8456 49.8398 33.8701 49.9859 33.8051 50.0986C33.7978 50.1113 33.79 50.1221 33.7804 50.1334C33.6859 50.2491 33.5177 50.267 33.4013 50.1737C33.2708 50.0677 32.1178 49.1137 31.982 48.244C31.9112 47.7875 32.0215 47.3282 32.129 46.8843C32.2249 46.4872 32.3158 46.1118 32.2712 45.7747C32.1961 45.2115 31.4972 44.4751 31.2335 44.2386C31.1222 44.1391 31.1134 43.9684 31.2129 43.8571C31.3124 43.7459 31.482 43.7364 31.5932 43.8359Z" fill="black"/>
</svg>
