<svg width="229" height="62" viewBox="0 0 229 62" fill="none" xmlns="http://www.w3.org/2000/svg">
<path d="M0.529063 13.3931C0.529063 11.3353 0.913344 9.50071 1.68191 7.88921C2.45047 6.25291 3.51654 4.86454 4.88012 3.7241C6.24369 2.58365 7.8304 1.71592 9.64024 1.1209C11.4749 0.501095 13.4335 0.191192 15.516 0.191192C16.3094 0.191192 17.0655 0.22838 17.7845 0.302756C18.5283 0.352341 19.1977 0.426718 19.7927 0.525886C20.3877 0.600264 20.8712 0.674641 21.243 0.749018L21.8009 10.3808H21.7265C20.9084 9.38914 20.239 8.65777 19.7183 8.18671C19.1977 7.69087 18.677 7.36857 18.1564 7.21982C17.6606 7.07106 17.0036 6.99668 16.1854 6.99668C14.9954 6.99668 13.9169 7.23221 12.95 7.70327C11.9831 8.14953 11.2146 8.80652 10.6443 9.67426C10.0989 10.5172 9.82618 11.5461 9.82618 12.7609C9.82618 14.2484 10.1113 15.5128 10.6815 16.5541C11.2765 17.5954 12.0823 18.3888 13.0988 18.9342C14.14 19.4796 15.3053 19.7523 16.5945 19.7523C17.2143 19.7523 17.7473 19.678 18.1936 19.5292C18.6646 19.3557 19.1977 19.0705 19.7927 18.6739C20.3877 18.2772 21.1315 17.6946 22.024 16.926H22.0612L21.3174 25.4794C20.9207 25.6033 20.3877 25.7397 19.7183 25.8884C19.0489 26.0372 18.268 26.1612 17.3754 26.2603C16.4829 26.3595 15.4664 26.4091 14.326 26.4091C12.3922 26.4091 10.5824 26.1116 8.89647 25.5165C7.21059 24.8967 5.74785 24.0166 4.50823 22.8762C3.26861 21.7357 2.28932 20.3721 1.57034 18.7854C0.876156 17.1739 0.529063 15.3765 0.529063 13.3931ZM35.7657 26.595C33.2121 26.595 30.894 26.0744 28.8115 25.0331C26.7289 23.967 25.0802 22.4547 23.8654 20.4961C22.6506 18.5127 22.0432 16.1451 22.0432 13.3931C22.0432 10.6412 22.6506 8.27349 23.8654 6.2901C25.0802 4.30672 26.7165 2.79439 28.7743 1.75311C30.8569 0.687037 33.1749 0.154002 35.7285 0.154002C38.3069 0.154002 40.625 0.687037 42.6828 1.75311C44.7406 2.79439 46.3769 4.30672 47.5917 6.2901C48.8313 8.2487 49.4511 10.604 49.4511 13.3559C49.4511 16.1079 48.8313 18.4755 47.5917 20.4589C46.3769 22.4175 44.7406 23.9298 42.6828 24.9959C40.625 26.062 38.3193 26.595 35.7657 26.595ZM36.1376 20.4217C37.0054 20.4217 37.7739 20.1614 38.4433 19.6408C39.1375 19.1201 39.6829 18.3764 40.0796 17.4095C40.4763 16.4426 40.6746 15.2897 40.6746 13.9509C40.6746 12.3394 40.4391 10.9635 39.968 9.82301C39.5218 8.68256 38.902 7.81483 38.1086 7.21982C37.3153 6.6248 36.3979 6.32729 35.3567 6.32729C34.5137 6.32729 33.7452 6.58761 33.051 7.10825C32.3568 7.62889 31.799 8.37266 31.3775 9.33956C30.9808 10.2817 30.7825 11.4345 30.7825 12.7981C30.7825 14.4096 31.0056 15.7856 31.4519 16.926C31.9229 18.0417 32.5551 18.9094 33.3485 19.5292C34.1666 20.1242 35.0963 20.4217 36.1376 20.4217ZM48.5603 26V25.9256C48.9322 25.5289 49.2421 25.1571 49.49 24.81C49.7379 24.4629 49.9239 24.0414 50.0479 23.5456C50.1966 23.0497 50.2958 22.4051 50.3454 21.6118C50.4197 20.7936 50.4569 19.7275 50.4569 18.4135C50.4817 17.0996 50.4941 15.4261 50.4941 13.3931V8.85611C50.4941 7.61649 50.4817 6.33969 50.4569 5.02569C50.4321 3.68691 50.3825 2.1002 50.3082 0.265568L50.8288 0.191192C51.9445 0.959753 53.1221 1.7903 54.3617 2.68282C55.6261 3.55055 56.9277 4.44308 58.2665 5.36039C59.6301 6.27771 60.9689 7.20742 62.2829 8.14953C63.6216 9.06684 64.8985 9.94697 66.1133 10.7899C67.3529 11.6328 68.4933 12.4138 69.5346 13.1328C70.6007 13.827 71.518 14.4344 72.2866 14.955L65.7786 17.5954C65.7786 16.9012 65.7538 15.9715 65.7042 14.8063C65.6794 13.6162 65.667 12.0419 65.667 10.0833C65.667 8.5462 65.6422 7.29419 65.5926 6.32729C65.5431 5.36039 65.4439 4.57943 65.2951 3.98442C65.1464 3.36461 64.9232 2.81918 64.6257 2.34812C64.3282 1.85228 63.9192 1.33164 63.3985 0.786206V0.71183H74.4063V0.786206C74.084 1.18288 73.8237 1.55477 73.6254 1.90186C73.427 2.24895 73.2659 2.67042 73.1419 3.16627C73.0427 3.66212 72.9684 4.31911 72.9188 5.13726C72.8692 5.95541 72.832 7.03387 72.8072 8.37266C72.7824 9.68665 72.77 11.3601 72.77 13.3931C72.77 15.4509 72.77 17.1987 72.77 18.6367C72.7948 20.0498 72.8196 21.2399 72.8444 22.2068C72.8692 23.1737 72.894 23.9918 72.9188 24.6612C72.9684 25.3058 73.0179 25.9008 73.0675 26.4463L72.77 26.5206C71.8527 25.7521 70.6875 24.81 69.2743 23.6943C67.8859 22.5539 66.3488 21.339 64.6629 20.0498C63.0018 18.7606 61.316 17.4714 59.6053 16.1822C57.9194 14.893 56.3203 13.6782 54.808 12.5378C53.3204 11.3973 52.056 10.4428 51.0148 9.67426L57.4112 9.56269C57.4112 10.009 57.436 10.7031 57.4855 11.6452C57.5599 12.5874 57.5971 13.9385 57.5971 15.6988C57.5971 17.459 57.6219 18.8846 57.6715 19.9755C57.7211 21.0663 57.8202 21.9589 57.969 22.653C58.1178 23.3224 58.3409 23.905 58.6384 24.4009C58.9359 24.8719 59.345 25.3802 59.8656 25.9256V26H48.5603ZM77.4561 26V25.9256C77.9767 25.281 78.3858 24.6612 78.6833 24.0662C78.9808 23.4712 79.2039 22.7646 79.3527 21.9465C79.5014 21.1035 79.6006 20.0127 79.6502 18.6739C79.6998 17.3103 79.7246 15.55 79.7246 13.3931C79.7246 11.3601 79.7122 9.68665 79.6874 8.37266C79.6874 7.05866 79.675 5.9926 79.6502 5.17445C79.6502 4.33151 79.6254 3.62493 79.5758 3.0547C79.5262 2.48448 79.4642 1.96384 79.3899 1.49279H88.3523C88.3027 1.96384 88.2531 2.48448 88.2035 3.0547C88.1787 3.62493 88.1539 4.33151 88.1291 5.17445C88.1291 5.9926 88.1168 7.05866 88.092 8.37266C88.092 9.68665 88.092 11.3601 88.092 13.3931C88.092 15.5748 88.1168 17.3475 88.1663 18.7111C88.2159 20.0498 88.3151 21.1407 88.4638 21.9836C88.6126 22.8018 88.8357 23.5084 89.1332 24.1034C89.4307 24.6736 89.8398 25.281 90.3605 25.9256V26H77.4561ZM73.9975 7.9264L74.2207 0.488698H74.295C74.4438 0.563076 74.8157 0.625056 75.4107 0.67464C76.0057 0.724226 76.7123 0.761414 77.5304 0.786206C78.3734 0.810998 79.2163 0.835791 80.0592 0.860583C80.9022 0.885376 81.646 0.897773 82.2906 0.897773C82.9352 0.897773 83.3814 0.897773 83.6293 0.897773C83.9021 0.897773 84.3855 0.897773 85.0797 0.897773C85.7739 0.897773 86.5672 0.885376 87.4598 0.860583C88.3771 0.835791 89.2696 0.810998 90.1373 0.786206C91.0299 0.761414 91.786 0.724226 92.4058 0.67464C93.0504 0.625056 93.4471 0.563076 93.5959 0.488698H93.6702L93.4099 7.9264H93.3355C92.9141 7.72806 92.5174 7.5793 92.1455 7.48013C91.7984 7.35617 91.3893 7.2694 90.9183 7.21982C90.472 7.14544 89.8894 7.10825 89.1704 7.10825C88.4514 7.08346 87.5093 7.07106 86.3441 7.07106H81.1377C80.0221 7.07106 79.1047 7.08346 78.3858 7.10825C77.6916 7.13304 77.109 7.17023 76.6379 7.21982C76.1669 7.2694 75.733 7.35617 75.3363 7.48013C74.9644 7.5793 74.543 7.72806 74.0719 7.9264H73.9975ZM93.5212 26V25.9256C93.9675 25.3802 94.3145 24.8596 94.5625 24.3637C94.8352 23.8431 95.0335 23.1861 95.1575 22.3927C95.3062 21.5746 95.393 20.4589 95.4178 19.0458C95.4674 17.6326 95.4922 15.7484 95.4922 13.3931C95.4922 11.013 95.4674 9.11643 95.4178 7.70327C95.393 6.2901 95.3062 5.17445 95.1575 4.3563C95.0335 3.53816 94.8352 2.88116 94.5625 2.38531C94.3145 1.86467 93.9675 1.33164 93.5212 0.786206V0.71183H105.793V0.786206C105.347 1.33164 105 1.86467 104.752 2.38531C104.504 2.88116 104.306 3.53816 104.157 4.3563C104.008 5.17445 103.909 6.2901 103.86 7.70327C103.835 9.11643 103.822 11.013 103.822 13.3931C103.822 15.7484 103.835 17.6326 103.86 19.0458C103.909 20.4589 104.008 21.5746 104.157 22.3927C104.306 23.1861 104.504 23.8431 104.752 24.3637C105 24.8596 105.347 25.3802 105.793 25.9256V26H93.5212ZM106.207 26V25.9256C106.653 25.3802 107 24.8472 107.248 24.3265C107.521 23.8059 107.719 23.1489 107.843 22.3555C107.992 21.5374 108.079 20.4217 108.103 19.0086C108.153 17.5706 108.178 15.674 108.178 13.3187C108.178 11.0626 108.165 9.25279 108.141 7.88921C108.116 6.52563 108.041 5.44716 107.917 4.65381C107.794 3.83566 107.583 3.15387 107.285 2.60844C107.013 2.03822 106.641 1.43081 106.17 0.786206V0.71183H115.987C116.409 0.71183 116.62 1.10851 116.62 1.90186C116.62 2.57125 116.607 3.52576 116.582 4.76537C116.558 6.00499 116.533 7.6041 116.508 9.56269L114.909 9.37675C115.132 8.36026 115.417 7.40576 115.764 6.51323C116.136 5.62071 116.595 4.80256 117.14 4.05879C117.686 3.29023 118.293 2.63323 118.962 2.0878C119.657 1.54237 120.438 1.1209 121.305 0.823394C122.173 0.525888 123.103 0.377134 124.094 0.377134C125.731 0.377134 127.094 0.699434 128.185 1.34403C129.276 1.96384 130.082 2.81918 130.602 3.91004C131.148 5.0009 131.421 6.24052 131.421 7.62889C131.421 8.79413 131.247 9.88499 130.9 10.9015C130.578 11.918 130.206 12.8601 129.784 13.7278C129.363 14.5955 128.979 15.3889 128.631 16.1079C128.309 16.8268 128.148 17.4838 128.148 18.0789C128.148 18.8226 128.408 19.3309 128.929 19.6036C129.45 19.8763 130.045 20.0127 130.714 20.0127C131.21 20.0127 131.669 19.9631 132.09 19.8639C132.511 19.7647 132.846 19.6904 133.094 19.6408V19.7151C132.623 21.8225 131.867 23.4712 130.826 24.6612C129.809 25.8265 128.359 26.4091 126.475 26.4091C125.458 26.4091 124.516 26.2231 123.648 25.8512C122.78 25.4794 122.074 24.8843 121.528 24.0662C121.008 23.2233 120.748 22.1076 120.748 20.7192C120.748 19.8267 120.859 18.835 121.082 17.7442C121.305 16.6533 121.553 15.5624 121.826 14.4716C122.123 13.3559 122.371 12.327 122.57 11.3849C122.793 10.4428 122.904 9.64946 122.904 9.00486C122.904 8.33547 122.793 7.79004 122.57 7.36857C122.347 6.92231 122.049 6.60001 121.677 6.40167C121.305 6.20333 120.871 6.10416 120.376 6.10416C119.83 6.10416 119.322 6.22812 118.851 6.47604C118.38 6.72397 117.971 7.12064 117.624 7.66608C117.277 8.18671 117.004 8.85611 116.806 9.67426C116.632 10.4924 116.545 11.4593 116.545 12.575C116.545 14.5831 116.558 16.269 116.582 17.6326C116.607 18.9962 116.644 20.1242 116.694 21.0167C116.768 21.8845 116.88 22.6035 117.029 23.1737C117.177 23.7191 117.363 24.2026 117.587 24.624C117.834 25.0455 118.132 25.4794 118.479 25.9256V26H106.207ZM133.107 19.0829C133.107 17.9177 133.268 16.8268 133.591 15.8104C133.938 14.7939 134.322 13.8518 134.743 12.984C135.165 12.1163 135.537 11.3229 135.859 10.604C136.206 9.88499 136.38 9.22799 136.38 8.63298C136.38 7.88921 136.119 7.38097 135.599 7.10825C135.078 6.83553 134.483 6.69917 133.814 6.69917C133.343 6.69917 132.896 6.74876 132.475 6.84793C132.054 6.9471 131.706 7.02148 131.434 7.07106V6.99668C131.93 4.86454 132.686 3.21585 133.702 2.05061C134.719 0.885375 136.181 0.302756 138.09 0.302756C139.107 0.302756 140.037 0.488698 140.88 0.860583C141.747 1.23247 142.441 1.83988 142.962 2.68282C143.508 3.50097 143.78 4.60422 143.78 5.99259C143.78 6.88512 143.669 7.86441 143.446 8.93048C143.247 9.99656 142.999 11.075 142.702 12.1659C142.404 13.2567 142.144 14.2856 141.921 15.2525C141.723 16.1946 141.623 17.0128 141.623 17.707C141.623 18.3516 141.735 18.897 141.958 19.3433C142.181 19.7895 142.479 20.1118 142.851 20.3102C143.247 20.5085 143.681 20.6077 144.152 20.6077C144.698 20.6077 145.206 20.4837 145.677 20.2358C146.173 19.9879 146.582 19.6036 146.904 19.0829C147.251 18.5375 147.512 17.8557 147.685 17.0376C147.883 16.2194 147.983 15.2525 147.983 14.1369C147.983 12.1287 147.97 10.4428 147.945 9.07924C147.921 7.71566 147.871 6.60001 147.797 5.73228C147.747 4.83975 147.648 4.12077 147.499 3.57534C147.375 3.00512 147.189 2.50927 146.941 2.0878C146.693 1.66633 146.396 1.23247 146.049 0.786206V0.71183H158.321V0.786206C157.875 1.33164 157.515 1.86467 157.243 2.38531C156.995 2.88116 156.796 3.53816 156.647 4.3563C156.524 5.17445 156.437 6.2901 156.387 7.70327C156.362 9.11643 156.35 11.013 156.35 13.3931C156.35 15.6492 156.362 17.459 156.387 18.8226C156.412 20.1862 156.486 21.2771 156.61 22.0952C156.759 22.8886 156.97 23.5704 157.243 24.1406C157.515 24.686 157.887 25.281 158.358 25.9256V26H148.54C148.144 26 147.945 25.6033 147.945 24.81C147.945 24.1406 147.945 23.1861 147.945 21.9465C147.97 20.7068 147.995 19.1077 148.02 17.1491L149.619 17.3351C149.396 18.3516 149.098 19.3061 148.726 20.1986C148.379 21.0911 147.933 21.9217 147.388 22.6902C146.842 23.434 146.222 24.0786 145.528 24.624C144.859 25.1695 144.09 25.5909 143.222 25.8884C142.355 26.1859 141.425 26.3347 140.433 26.3347C138.797 26.3347 137.433 26.0248 136.343 25.405C135.277 24.7604 134.471 23.8927 133.925 22.8018C133.38 21.6861 133.107 20.4465 133.107 19.0829ZM171.942 26.595C169.389 26.595 167.071 26.0744 164.988 25.0331C162.906 23.967 161.257 22.4547 160.042 20.4961C158.827 18.5127 158.22 16.1451 158.22 13.3931C158.22 10.6412 158.827 8.27349 160.042 6.2901C161.257 4.30672 162.893 2.79439 164.951 1.75311C167.034 0.687037 169.352 0.154002 171.905 0.154002C174.484 0.154002 176.802 0.687037 178.859 1.75311C180.917 2.79439 182.554 4.30672 183.768 6.2901C185.008 8.2487 185.628 10.604 185.628 13.3559C185.628 16.1079 185.008 18.4755 183.768 20.4589C182.554 22.4175 180.917 23.9298 178.859 24.9959C176.802 26.062 174.496 26.595 171.942 26.595ZM172.314 20.4217C173.182 20.4217 173.951 20.1614 174.62 19.6408C175.314 19.1201 175.86 18.3764 176.256 17.4095C176.653 16.4426 176.851 15.2897 176.851 13.9509C176.851 12.3394 176.616 10.9635 176.145 9.82301C175.698 8.68256 175.079 7.81483 174.285 7.21982C173.492 6.6248 172.575 6.32729 171.533 6.32729C170.69 6.32729 169.922 6.58761 169.228 7.10825C168.533 7.62889 167.976 8.37266 167.554 9.33956C167.157 10.2817 166.959 11.4345 166.959 12.7981C166.959 14.4096 167.182 15.7856 167.629 16.926C168.1 18.0417 168.732 18.9094 169.525 19.5292C170.343 20.1242 171.273 20.4217 172.314 20.4217ZM184.923 0.71183H197.232V0.786206C196.786 1.33164 196.439 1.85228 196.191 2.34812C195.943 2.84397 195.745 3.45138 195.596 4.17036C195.447 4.88934 195.348 5.84384 195.299 7.03387C195.274 8.2239 195.261 9.79822 195.261 11.7568C195.261 13.3683 195.261 14.5707 195.261 15.3641C195.261 16.1574 195.261 16.7649 195.261 17.1863C195.261 18.5499 195.497 19.4672 195.968 19.9383C196.439 20.3845 197.121 20.6077 198.013 20.6077C198.559 20.6077 199.042 20.5333 199.464 20.3845C199.91 20.2358 200.319 20.0498 200.691 19.8267C201.088 19.5788 201.447 19.3185 201.769 19.0458L202.773 21.6489C201.088 23.2604 199.501 24.4505 198.013 25.219C196.526 25.9628 195.051 26.3347 193.588 26.3347C191.332 26.3347 189.633 25.8265 188.493 24.81C187.353 23.7935 186.782 21.9465 186.782 19.2689C186.782 18.8474 186.807 18.1036 186.857 17.0376C186.906 15.9467 186.931 14.2732 186.931 12.0171C186.931 9.98416 186.906 8.36026 186.857 7.14544C186.807 5.90582 186.72 4.92652 186.596 4.20755C186.472 3.46378 186.274 2.84397 186.001 2.34812C185.753 1.85228 185.394 1.33164 184.923 0.786206V0.71183ZM212.033 26H202.216C201.819 26 201.621 25.5909 201.621 24.7728C201.621 23.9794 201.633 22.6654 201.658 20.8308C201.683 18.9714 201.695 16.4921 201.695 13.3931C201.695 11.013 201.67 9.11643 201.621 7.70327C201.596 6.2901 201.509 5.17445 201.36 4.3563C201.236 3.53816 201.038 2.88116 200.765 2.38531C200.517 1.86467 200.17 1.33164 199.724 0.786206V0.71183H211.996V0.786206C211.55 1.33164 211.19 1.86467 210.918 2.38531C210.67 2.88116 210.471 3.53816 210.323 4.3563C210.199 5.17445 210.112 6.2901 210.062 7.70327C210.038 9.11643 210.025 11.013 210.025 13.3931C210.025 15.6492 210.038 17.459 210.062 18.8226C210.087 20.1862 210.162 21.2771 210.285 22.0952C210.409 22.8886 210.608 23.5704 210.88 24.1406C211.178 24.686 211.562 25.281 212.033 25.9256V26ZM212.624 25.8884L212.289 18.0045H212.364C213.405 18.5499 214.223 18.9838 214.818 19.3061C215.413 19.6036 215.909 19.8143 216.306 19.9383C216.702 20.0622 217.087 20.1242 217.459 20.1242C217.954 20.1242 218.363 19.9879 218.686 19.7151C219.033 19.4424 219.206 19.0458 219.206 18.5251C219.206 18.1284 219.033 17.7442 218.686 17.3723C218.363 17.0004 217.954 16.6037 217.459 16.1822L214.855 13.9509C214.037 13.2072 213.405 12.389 212.959 11.4965C212.537 10.5792 212.326 9.55029 212.326 8.40985C212.326 6.69918 212.773 5.23643 213.665 4.02161C214.558 2.78199 215.76 1.83988 217.273 1.19528C218.81 0.55068 220.52 0.22838 222.405 0.22838C223.198 0.22838 223.966 0.290361 224.71 0.414322C225.454 0.538284 226.049 0.674641 226.495 0.823394L227.128 8.14953H227.053C226.012 7.33138 225.132 6.76116 224.413 6.43886C223.694 6.09176 223.037 5.91822 222.442 5.91822C221.921 5.91822 221.5 6.02978 221.177 6.25291C220.88 6.47605 220.731 6.79835 220.731 7.21982C220.731 7.61649 220.892 7.98838 221.215 8.33547C221.537 8.65777 221.934 9.02965 222.405 9.45112L225.268 11.8312C227.128 13.3931 228.057 15.4261 228.057 17.9301C228.057 19.8391 227.623 21.4382 226.756 22.7274C225.913 23.9918 224.735 24.9463 223.223 25.5909C221.735 26.2355 220.049 26.5578 218.165 26.5578C217.57 26.5578 216.913 26.5206 216.194 26.4463C215.5 26.3719 214.831 26.2851 214.186 26.1859C213.566 26.0868 213.045 25.9876 212.624 25.8884ZM16.7885 61V60.9102C17.2074 60.611 17.746 59.9677 18.4043 58.9803C19.0626 57.9629 19.7957 56.7212 20.6036 55.255C21.4114 53.7889 22.2792 52.188 23.2068 50.4526C24.1343 48.7171 25.0769 46.9517 26.0344 45.1564C26.9919 43.3312 27.9494 41.5808 28.9069 39.9052C29.8943 38.2295 30.8218 36.7185 31.6896 35.372C32.5872 34.0255 33.4101 32.9483 34.1581 32.1405L37.7936 36.539C36.9259 37.7358 36.0133 39.1421 35.0558 40.7579C34.0983 42.3438 33.1857 44.0044 32.3179 45.7399C31.4502 47.4754 30.6722 49.1659 29.984 50.8116C29.2958 52.4274 28.7423 53.8786 28.3234 55.1653C27.9045 56.422 27.695 57.3795 27.695 58.0377C27.695 58.5763 27.7848 59.07 27.9643 59.5189C28.1438 59.9677 28.3982 60.4315 28.7273 60.9102V61H16.7885ZM28.099 51.44L28.6824 46.099C29.3108 46.1887 29.999 46.2486 30.747 46.2785C31.525 46.2785 32.3179 46.2785 33.1258 46.2785C34.203 46.2785 35.2054 46.2785 36.133 46.2785C37.0605 46.2486 37.9283 46.1887 38.7362 46.099L39.0952 51.44C38.2574 51.3502 37.3448 51.3053 36.3574 51.3053C35.37 51.2754 34.2928 51.2605 33.1258 51.2605C32.1683 51.2605 31.2707 51.2754 30.4329 51.3053C29.5951 51.3053 28.8171 51.3502 28.099 51.44ZM34.6069 61V60.9102C35.1755 60.3417 35.6093 59.7882 35.9085 59.2496C36.2078 58.6811 36.4471 57.9181 36.6267 56.9606C36.8062 55.9731 36.9109 54.5967 36.9408 52.8314C37.0007 51.066 37.0306 48.7171 37.0306 45.7848C37.0306 43.5406 37.0157 41.6705 36.9857 40.1744C36.9857 38.6484 36.9558 37.4067 36.896 36.4492C36.8361 35.4917 36.7314 34.7137 36.5818 34.1153C36.4322 33.5169 36.2227 33.0231 35.9534 32.6342C35.6841 32.2153 35.355 31.7814 34.966 31.3326L38.3322 32.32L38.2424 36.1799C35.9983 36.1799 33.9337 36.1799 32.0486 36.1799C30.1636 36.1799 28.458 36.2098 26.932 36.2697C25.4359 36.3295 24.1194 36.4342 22.9823 36.5838C21.8752 36.7334 20.9626 36.9579 20.2445 37.2571H20.1547L20.424 30.2105C20.6036 30.3003 21.187 30.3751 22.1745 30.4349C23.1619 30.4948 24.4335 30.5396 25.9895 30.5696C27.5454 30.5696 29.2659 30.5696 31.151 30.5696C33.066 30.5696 35.0259 30.5696 37.0306 30.5696C39.0354 30.5696 40.9803 30.5546 42.8654 30.5247C44.7804 30.4948 46.5009 30.4798 48.0269 30.4798L47.982 30.5696C47.5631 31.0483 47.204 31.4971 46.9048 31.916C46.6355 32.3349 46.4111 32.8586 46.2316 33.4869C46.052 34.0854 45.9174 34.8933 45.8276 35.9106C45.7378 36.898 45.678 38.1996 45.6481 39.8154C45.6182 41.4012 45.6032 43.391 45.6032 45.7848C45.6032 48.7171 45.6182 51.066 45.6481 52.8314C45.7079 54.5967 45.8127 55.9731 45.9623 56.9606C46.1418 57.9181 46.3812 58.6811 46.6804 59.2496C47.0095 59.7882 47.4434 60.3417 47.982 60.9102V61C47.3536 60.9402 46.7552 60.9102 46.1867 60.9102C45.6182 60.8803 44.9599 60.8803 44.2118 60.9102C43.4937 60.9102 42.5811 60.9102 41.474 60.9102C40.307 60.9102 39.3346 60.9102 38.5566 60.9102C37.8086 60.9102 37.1353 60.9102 36.5369 60.9102C35.9385 60.9102 35.2951 60.9402 34.6069 61ZM48.6587 61V60.9102C49.1375 60.4913 49.5115 60.0874 49.7808 59.6984C50.08 59.3094 50.3194 58.8157 50.4989 58.2173C50.6784 57.6188 50.8131 56.8259 50.9029 55.8385C50.9926 54.8212 51.0375 53.5046 51.0375 51.8888C51.0674 50.273 51.0824 48.2384 51.0824 45.7848C51.0824 43.3312 51.0674 41.2965 51.0375 39.6807C51.0076 38.035 50.9477 36.7185 50.858 35.7311C50.7981 34.7137 50.6784 33.9058 50.4989 33.3074C50.3194 32.709 50.08 32.2153 49.7808 31.8263C49.5115 31.4074 49.1375 30.9885 48.6587 30.5696V30.4798C49.317 30.5097 49.9154 30.5396 50.454 30.5696C51.0225 30.5696 51.6808 30.5696 52.4289 30.5696C53.1769 30.5696 54.0895 30.5696 55.1667 30.5696C56.1841 30.5696 57.1116 30.5696 57.9494 30.5696C58.8172 30.5396 59.7896 30.5247 60.8668 30.5247C61.9739 30.4948 63.3952 30.4798 65.1307 30.4798C68.4819 30.4798 70.9355 31.2428 72.4914 32.7688C74.0773 34.2948 74.8702 36.4492 74.8702 39.2319C74.8702 41.2067 74.3765 42.9572 73.3891 44.4832C72.4017 45.9793 71.0851 47.1462 69.4394 47.984C67.8236 48.7919 66.0433 49.1959 64.0984 49.1959C62.9913 49.1959 61.9739 49.1659 61.0463 49.1061C60.1188 49.0163 59.3408 48.9116 58.7124 48.7919L58.5778 43.406C59.2959 43.4958 60.029 43.5556 60.777 43.5855C61.555 43.6155 62.1385 43.6304 62.5275 43.6304C63.7243 43.6304 64.6669 43.2863 65.3551 42.5981C66.0732 41.88 66.4323 40.9225 66.4323 39.7256C66.4323 38.4689 66.1031 37.5264 65.4448 36.898C64.8165 36.2697 63.7991 35.9555 62.3928 35.9555C61.7645 35.9555 61.0314 35.9704 60.1936 36.0004C59.3857 36.0303 58.4132 36.0901 57.2762 36.1799L59.7447 31.2428C59.7148 32.6491 59.6849 34.1303 59.655 35.6862C59.6251 37.2421 59.5951 38.8579 59.5652 40.5335C59.5652 42.1792 59.5652 43.9296 59.5652 45.7848C59.5652 48.2384 59.5802 50.273 59.6101 51.8888C59.64 53.5046 59.6999 54.8212 59.7896 55.8385C59.8794 56.8259 59.9991 57.6188 60.1487 58.2173C60.3282 58.8157 60.5676 59.3094 60.8668 59.6984C61.166 60.0874 61.5401 60.4913 61.9889 60.9102V61H48.6587ZM70.741 61.1346C70.1725 61.1346 69.7087 61.0299 69.3496 60.8205C68.9906 60.611 68.6315 60.252 68.2724 59.7433C67.7039 58.8756 67.0157 57.7385 66.2078 56.3322C65.4299 54.896 64.5921 53.3251 63.6944 51.6195C62.7968 49.8841 61.8842 48.1636 60.9566 46.458L69.4843 45.9643C70.9205 48.5974 72.1324 50.7817 73.1198 52.5172C74.1371 54.2526 74.9749 55.644 75.6332 56.6913C76.3214 57.7086 76.8899 58.5015 77.3387 59.07C77.8175 59.6086 78.2364 59.9976 78.5955 60.237C78.9545 60.4764 79.3285 60.6709 79.7175 60.8205V60.9102C78.3112 60.9102 76.875 60.9402 75.4088 61C73.9426 61.0898 72.3867 61.1346 70.741 61.1346ZM81.0282 61V60.9102C81.6566 60.252 82.1503 59.6086 82.5094 58.9803C82.8684 58.322 83.1377 57.4992 83.3173 56.5117C83.4968 55.4944 83.6165 54.1479 83.6763 52.4723C83.7362 50.7668 83.7661 48.5376 83.7661 45.7848C83.7661 43.3611 83.7511 41.3414 83.7212 39.7256C83.7212 38.1098 83.7062 36.7933 83.6763 35.7759C83.6464 34.7287 83.5865 33.8759 83.4968 33.2176C83.4369 32.5294 83.3621 31.9011 83.2724 31.3326H92.608C92.5481 31.9011 92.4883 32.5294 92.4284 33.2176C92.3985 33.8759 92.3686 34.7287 92.3387 35.7759C92.3087 36.7933 92.2788 38.1098 92.2489 39.7256C92.2489 41.3115 92.2489 43.3312 92.2489 45.7848C92.2489 48.5675 92.2788 50.8116 92.3387 52.5172C92.3985 54.1928 92.5182 55.5393 92.6977 56.5566C92.8773 57.544 93.1466 58.3519 93.5056 58.9803C93.8647 59.6086 94.3584 60.252 94.9867 60.9102V61H81.0282ZM76.1809 38.065L76.4502 30.2105H76.54C76.7195 30.3003 77.1683 30.3751 77.8864 30.4349C78.6046 30.4948 79.4573 30.5396 80.4448 30.5696C81.4322 30.5995 82.4196 30.6294 83.407 30.6593C84.4244 30.6892 85.322 30.7042 86.1 30.7042C86.8779 30.7042 87.4165 30.7042 87.7157 30.7042C88.015 30.7042 88.5835 30.7042 89.4213 30.7042C90.2591 30.7042 91.2016 30.6892 92.2489 30.6593C93.3261 30.6294 94.3883 30.5995 95.4356 30.5696C96.4828 30.5396 97.3805 30.4948 98.1285 30.4349C98.9065 30.3751 99.3852 30.3003 99.5648 30.2105H99.6545L99.3404 38.065H99.2506C98.7419 37.8256 98.2632 37.6461 97.8143 37.5264C97.3655 37.3768 96.8569 37.272 96.2883 37.2122C95.7497 37.1224 95.0615 37.0775 94.2237 37.0775C93.3859 37.0476 92.2938 37.0327 90.9473 37.0327H84.6188C83.3322 37.0327 82.27 37.0476 81.4322 37.0775C80.5944 37.1075 79.8912 37.1524 79.3227 37.2122C78.7841 37.272 78.2754 37.3768 77.7967 37.5264C77.3479 37.6461 76.8392 37.8256 76.2707 38.065H76.1809ZM99.5707 61V60.9102C100.139 60.3417 100.573 59.7882 100.872 59.2496C101.201 58.6811 101.441 57.9181 101.59 56.9606C101.77 55.9731 101.875 54.5967 101.905 52.8314C101.964 51.066 101.994 48.7171 101.994 45.7848C101.994 42.8225 101.964 40.4587 101.905 38.6933C101.875 36.9279 101.77 35.5665 101.59 34.609C101.441 33.6216 101.201 32.8436 100.872 32.2751C100.573 31.7066 100.139 31.1381 99.5707 30.5696V30.4798H112.901V30.5696C112.362 31.1381 111.928 31.7066 111.599 32.2751C111.3 32.8436 111.061 33.6216 110.881 34.609C110.702 35.5665 110.582 36.9279 110.522 38.6933C110.492 40.4587 110.477 42.8225 110.477 45.7848C110.477 48.7171 110.492 51.066 110.522 52.8314C110.582 54.5967 110.702 55.9731 110.881 56.9606C111.061 57.9181 111.3 58.6811 111.599 59.2496C111.928 59.7882 112.362 60.3417 112.901 60.9102V61H99.5707ZM115.945 45.7848C115.945 42.8524 115.915 40.5036 115.855 38.7382C115.825 36.9429 115.72 35.5665 115.541 34.609C115.391 33.6216 115.152 32.8436 114.823 32.2751C114.524 31.7066 114.09 31.1381 113.521 30.5696V30.4798C114.239 30.5097 115.167 30.5396 116.304 30.5696C117.471 30.5995 118.772 30.6294 120.209 30.6593C121.645 30.6593 123.111 30.6593 124.607 30.6593C126.492 30.6593 128.243 30.6294 129.858 30.5696C131.504 30.4798 132.641 30.3601 133.27 30.2105H133.359L133.763 37.4366H133.673C132.746 36.9878 131.803 36.6736 130.846 36.4941C129.918 36.3145 128.781 36.2248 127.435 36.2248C126.268 36.2248 125.221 36.2397 124.293 36.2697C123.395 36.2697 122.573 36.2996 121.824 36.3594L125.236 31.0633C125.086 31.6318 124.951 32.4846 124.832 33.6216C124.712 34.7586 124.622 36.2996 124.562 38.2445C124.502 40.1894 124.473 42.7028 124.473 45.7848C124.473 48.7171 124.502 51.066 124.562 52.8314C124.622 54.5967 124.727 55.9731 124.876 56.9606C125.026 57.9181 125.265 58.6811 125.595 59.2496C125.924 59.7882 126.373 60.3417 126.941 60.9102V61C126.283 60.9402 125.639 60.9102 125.011 60.9102C124.413 60.8803 123.739 60.8803 122.991 60.9102C122.243 60.9102 121.301 60.9102 120.164 60.9102C118.398 60.9102 117.022 60.9102 116.035 60.9102C115.047 60.9102 114.209 60.9402 113.521 61V60.9102C114.09 60.3417 114.524 59.7882 114.823 59.2496C115.152 58.6811 115.391 57.9181 115.541 56.9606C115.72 55.9731 115.825 54.5967 115.855 52.8314C115.915 51.066 115.945 48.7171 115.945 45.7848ZM133.27 45.8745C131.265 45.7249 129.484 45.6352 127.929 45.6052C126.402 45.5753 125.056 45.5604 123.889 45.5604V39.9052C125.056 39.9351 126.402 39.9351 127.929 39.9052C129.455 39.8752 131.19 39.7555 133.135 39.5461L133.27 45.8745ZM130.99 61V60.9102C131.29 60.6709 131.574 60.4315 131.843 60.1921C132.112 59.9228 132.397 59.5189 132.696 58.9803C133.025 58.4417 133.429 57.6637 133.908 56.6464C134.416 55.5991 135.06 54.1928 135.838 52.4274C136.646 50.6321 137.633 48.3581 138.8 45.6052C139.937 43.0021 140.865 40.8776 141.583 39.2319C142.331 37.5563 142.899 36.2547 143.288 35.3271C143.707 34.3995 144.021 33.7113 144.231 33.2625C144.44 32.8137 144.59 32.4846 144.68 32.2751C144.769 32.0357 144.844 31.7964 144.904 31.557L148.674 36.2248C148.405 37.1224 148.031 38.1847 147.552 39.4114C147.073 40.6083 146.415 42.2091 145.577 44.2139C144.5 46.847 143.677 49.0463 143.109 50.8116C142.54 52.577 142.136 54.0133 141.897 55.1204C141.687 56.2275 141.583 57.1401 141.583 57.8582C141.583 58.5165 141.687 59.07 141.897 59.5189C142.136 59.9677 142.45 60.4315 142.839 60.9102V61H130.99ZM153.566 53.6392C153.177 52.5022 152.669 51.1707 152.04 49.6447C151.442 48.0888 150.724 46.2785 149.886 44.2139C149.407 43.0469 148.973 41.9997 148.584 41.0721C148.195 40.1146 147.836 39.217 147.507 38.3791C147.178 37.5413 146.864 36.7484 146.565 36.0004C146.146 35.1027 145.697 34.3696 145.218 33.8011C144.769 33.2326 144.276 32.709 143.737 32.2302C143.198 31.7215 142.6 31.168 141.942 30.5696V30.4798H151.457C151.487 30.6593 151.547 30.8837 151.636 31.153C151.756 31.4223 151.936 31.8412 152.175 32.4097C152.414 32.9483 152.758 33.7562 153.207 34.8334C153.686 35.8807 154.299 37.272 155.047 39.0075C155.825 40.743 156.783 42.9422 157.92 45.6052C159.117 48.3581 160.104 50.6171 160.882 52.3825C161.66 54.1479 162.289 55.5393 162.767 56.5566C163.246 57.574 163.65 58.3519 163.979 58.8905C164.308 59.4291 164.607 59.8331 164.877 60.1023C165.146 60.3716 165.445 60.6409 165.774 60.9102V61H152.669V60.9102C153.058 60.4913 153.372 60.1173 153.611 59.7882C153.851 59.4291 153.97 58.9803 153.97 58.4417C153.97 57.9031 153.716 57.2897 153.207 56.6015C152.699 55.8834 151.98 55.1653 151.053 54.4471C150.155 53.6991 149.063 53.0258 147.776 52.4274C146.52 51.7991 145.128 51.3053 143.602 50.9463C142.106 50.5573 140.52 50.3628 138.845 50.3628C137.199 50.3628 135.808 50.6022 134.671 51.0809C133.564 51.5298 132.786 52.3077 132.337 53.4148H132.247C132.187 53.0258 132.142 52.6668 132.112 52.3376C132.082 51.9786 132.068 51.6195 132.068 51.2605C132.068 49.136 132.696 47.4604 133.953 46.2336C135.239 45.0068 137.184 44.3934 139.787 44.3934C141.254 44.3934 142.66 44.6029 144.006 45.0218C145.383 45.4108 146.684 45.9793 147.911 46.7273C149.138 47.4754 150.305 48.373 151.412 49.4203C152.519 50.4675 153.536 51.6494 154.464 52.966L153.566 53.6392ZM162.135 45.7848C162.135 43.3013 162.584 41.0871 163.482 39.1421C164.409 37.1673 165.681 35.4917 167.297 34.1153C168.912 32.7389 170.797 31.6916 172.952 30.9735C175.106 30.2554 177.425 29.8963 179.909 29.8963C180.836 29.8963 181.749 29.9412 182.646 30.031C183.574 30.1207 184.412 30.2255 185.16 30.3451C185.938 30.4349 186.551 30.5247 187 30.6144L187.628 40.8477H187.539C186.671 39.7107 185.893 38.8579 185.205 38.2894C184.546 37.6909 183.858 37.302 183.14 37.1224C182.422 36.913 181.524 36.8082 180.447 36.8082C178.772 36.8082 177.261 37.1374 175.914 37.7957C174.568 38.4539 173.505 39.3965 172.727 40.6233C171.949 41.8201 171.56 43.2863 171.56 45.0218C171.56 47.0864 171.964 48.8518 172.772 50.3179C173.58 51.7542 174.687 52.8463 176.094 53.5944C177.53 54.3125 179.161 54.6715 180.986 54.6715C181.824 54.6715 182.572 54.5668 183.23 54.3574C183.918 54.1479 184.636 53.7889 185.384 53.2802C186.162 52.7715 187.03 52.0534 187.987 51.1258H188.032L187.269 60.0575C186.791 60.2968 186.117 60.5213 185.25 60.7307C184.412 60.9402 183.424 61.1197 182.287 61.2693C181.18 61.4189 179.953 61.4937 178.607 61.4937C176.303 61.4937 174.149 61.1346 172.144 60.4165C170.139 59.6685 168.389 58.6063 166.893 57.2299C165.397 55.8535 164.23 54.2078 163.392 52.2928C162.554 50.3479 162.135 48.1785 162.135 45.7848ZM192.726 61V60.9102C193.355 60.252 193.848 59.6086 194.208 58.9803C194.567 58.322 194.836 57.4992 195.015 56.5117C195.195 55.4944 195.315 54.1479 195.375 52.4723C195.434 50.7668 195.464 48.5376 195.464 45.7848C195.464 43.3611 195.449 41.3414 195.419 39.7256C195.419 38.1098 195.404 36.7933 195.375 35.7759C195.345 34.7287 195.285 33.8759 195.195 33.2176C195.135 32.5294 195.06 31.9011 194.971 31.3326H204.306C204.246 31.9011 204.186 32.5294 204.127 33.2176C204.097 33.8759 204.067 34.7287 204.037 35.7759C204.007 36.7933 203.977 38.1098 203.947 39.7256C203.947 41.3115 203.947 43.3312 203.947 45.7848C203.947 48.5675 203.977 50.8116 204.037 52.5172C204.097 54.1928 204.216 55.5393 204.396 56.5566C204.575 57.544 204.845 58.3519 205.204 58.9803C205.563 59.6086 206.057 60.252 206.685 60.9102V61H192.726ZM187.879 38.065L188.148 30.2105H188.238C188.418 30.3003 188.867 30.3751 189.585 30.4349C190.303 30.4948 191.156 30.5396 192.143 30.5696C193.13 30.5995 194.118 30.6294 195.105 30.6593C196.123 30.6892 197.02 30.7042 197.798 30.7042C198.576 30.7042 199.115 30.7042 199.414 30.7042C199.713 30.7042 200.282 30.7042 201.119 30.7042C201.957 30.7042 202.9 30.6892 203.947 30.6593C205.024 30.6294 206.087 30.5995 207.134 30.5696C208.181 30.5396 209.079 30.4948 209.827 30.4349C210.605 30.3751 211.083 30.3003 211.263 30.2105H211.353L211.039 38.065H210.949C210.44 37.8256 209.961 37.6461 209.513 37.5264C209.064 37.3768 208.555 37.272 207.987 37.2122C207.448 37.1224 206.76 37.0775 205.922 37.0775C205.084 37.0476 203.992 37.0327 202.645 37.0327H196.317C195.03 37.0327 193.968 37.0476 193.13 37.0775C192.293 37.1075 191.589 37.1524 191.021 37.2122C190.482 37.272 189.974 37.3768 189.495 37.5264C189.046 37.6461 188.537 37.8256 187.969 38.065H187.879Z" fill="black"/>
</svg>
